<svg width="14" height="19" viewBox="0 0 14 19" fill="none" xmlns="http://www.w3.org/2000/svg">
<g filter="url(#filter0_d_2_110)">
<path d="M12 1H2.20001L5.49 4.2L4.92 4.83C4.55509 5.31517 4.2211 5.82284 3.92 6.35C3.62679 6.99118 3.4022 7.66158 3.25 8.35C3.1934 9.05887 3.1934 9.77113 3.25 10.48C3.28713 11.0363 3.38778 11.5866 3.55 12.12C3.70077 12.6048 3.91246 13.0685 4.18 13.5C4.46033 13.9383 4.79648 14.3384 5.18 14.69C5.86538 15.158 6.58777 15.5694 7.34 15.92C6.9665 15.371 6.65145 14.7845 6.4 14.17C6.2744 13.6664 6.18088 13.1554 6.12 12.64C6.06921 12.1116 6.04918 11.5807 6.06 11.05C6.07982 10.6673 6.14357 10.2881 6.25 9.92C6.41289 9.44919 6.64913 9.00708 6.95 8.61C7.18761 8.28231 7.45545 7.97764 7.75 7.7C8.01777 7.43911 8.30167 7.1953 8.6 6.97L12 10.2V1Z" fill="white"/>
<path d="M11 8V2H5.00001L6.85001 3.78C6.71001 3.93 6.52001 4.12 6.41001 4.26C6.13001 4.61 5.97001 4.8 5.80001 4.99C5.63001 5.18 5.54001 5.31 5.42001 5.46C5.2884 5.64242 5.16817 5.83278 5.06001 6.03C4.95001 6.23 4.83001 6.49 4.69001 6.78C4.54336 7.09919 4.43591 7.43497 4.37001 7.78C4.29051 8.10905 4.23371 8.44317 4.20001 8.78C4.18648 9.03315 4.18648 9.28685 4.20001 9.54C4.17617 9.87291 4.17617 10.2071 4.20001 10.54C4.28862 11.1309 4.44984 11.7086 4.68001 12.26L5.14001 13.19C5.05082 12.4334 5.01073 11.6718 5.02001 10.91C5.09128 10.3111 5.25665 9.72729 5.51001 9.18C5.55751 9.03336 5.62124 8.89249 5.70001 8.76L6.06001 8.19C6.27001 7.85 6.71001 7.32 6.82001 7.19C7.11111 6.86142 7.42524 6.55397 7.76001 6.27L8.55001 5.6L11 8Z" fill="black"/>
</g>
<defs>
<filter id="filter0_d_2_110" x="0.400012" y="0.2" width="13.4" height="18.52" filterUnits="userSpaceOnUse" color-interpolation-filters="sRGB">
<feFlood flood-opacity="0" result="BackgroundImageFix"/>
<feColorMatrix in="SourceAlpha" type="matrix" values="0 0 0 0 0 0 0 0 0 0 0 0 0 0 0 0 0 0 127 0" result="hardAlpha"/>
<feOffset dy="1"/>
<feGaussianBlur stdDeviation="0.9"/>
<feColorMatrix type="matrix" values="0 0 0 0 0 0 0 0 0 0 0 0 0 0 0 0 0 0 0.65 0"/>
<feBlend mode="normal" in2="BackgroundImageFix" result="effect1_dropShadow_2_110"/>
<feBlend mode="normal" in="SourceGraphic" in2="effect1_dropShadow_2_110" result="shape"/>
</filter>
</defs>
</svg>
