<svg width="20" height="20" viewBox="0 0 20 20" fill="none" xmlns="http://www.w3.org/2000/svg">
<g filter="url(#filter0_d_2_115)">
<path d="M10 1L2 9L7.22 14.22L10 17L18 9L10 1ZM8 12H7V11H8V12ZM8 7H7V6H8V7ZM13 12H12V11H13V12ZM12 6H13V7H12V6Z" fill="white"/>
<path d="M16.55 8.98L13.99 6.17V8H9.99H5.98V6.17L3.41 8.98L5.98 11.79V9.98H9.99H13.99V11.79L16.55 8.98Z" fill="black"/>
<path d="M10.97 8.99H10.98V4.99H12.79L9.99 2.42L7.18 4.99H8.99V8.99V12.99H7.17L9.97 15.56L12.78 12.99H10.97V8.99Z" fill="black"/>
</g>
<defs>
<filter id="filter0_d_2_115" x="0.2" y="0.2" width="19.6" height="19.6" filterUnits="userSpaceOnUse" color-interpolation-filters="sRGB">
<feFlood flood-opacity="0" result="BackgroundImageFix"/>
<feColorMatrix in="SourceAlpha" type="matrix" values="0 0 0 0 0 0 0 0 0 0 0 0 0 0 0 0 0 0 127 0" result="hardAlpha"/>
<feOffset dy="1"/>
<feGaussianBlur stdDeviation="0.9"/>
<feColorMatrix type="matrix" values="0 0 0 0 0 0 0 0 0 0 0 0 0 0 0 0 0 0 0.65 0"/>
<feBlend mode="normal" in2="BackgroundImageFix" result="effect1_dropShadow_2_115"/>
<feBlend mode="normal" in="SourceGraphic" in2="effect1_dropShadow_2_115" result="shape"/>
</filter>
</defs>
</svg>
