<svg width="23" height="36" viewBox="0 0 23 36" fill="none" xmlns="http://www.w3.org/2000/svg">
<g filter="url(#filter0_d_2_234)">
<path fill-rule="evenodd" clip-rule="evenodd" d="M3 24C3 28.97 7.03 33 12 33C16.97 33 21 28.97 21 24C21 19.029 16.97 15 12 15C7.03 15 3 19.029 3 24Z" fill="url(#paint0_linear_2_234)"/>
<path fill-rule="evenodd" clip-rule="evenodd" d="M13 23V20C13 19.448 12.552 19 12 19C11.448 19 11 19.448 11 20V23H8C7.448 23 7 23.448 7 24C7 24.552 7.448 25 8 25H11V28C11 28.552 11.448 29 12 29C12.552 29 13 28.552 13 28V25H16C16.552 25 17 24.552 17 24C17 23.448 16.552 23 16 23H13Z" fill="white"/>
<path fill-rule="evenodd" clip-rule="evenodd" d="M2 17.5V1.5L13.6 13.1081H6.55353L6.40242 13.232L2 17.5Z" fill="white"/>
<path fill-rule="evenodd" clip-rule="evenodd" d="M3 3.79999V15L5.969 12.1309L6.129 11.9918L11.165 12L3 3.79999Z" fill="black"/>
</g>
<defs>
<filter id="filter0_d_2_234" x="0.2" y="0.7" width="22.6" height="35.1" filterUnits="userSpaceOnUse" color-interpolation-filters="sRGB">
<feFlood flood-opacity="0" result="BackgroundImageFix"/>
<feColorMatrix in="SourceAlpha" type="matrix" values="0 0 0 0 0 0 0 0 0 0 0 0 0 0 0 0 0 0 127 0" result="hardAlpha"/>
<feOffset dy="1"/>
<feGaussianBlur stdDeviation="0.9"/>
<feColorMatrix type="matrix" values="0 0 0 0 0 0 0 0 0 0 0 0 0 0 0 0 0 0 0.65 0"/>
<feBlend mode="normal" in2="BackgroundImageFix" result="effect1_dropShadow_2_234"/>
<feBlend mode="normal" in="SourceGraphic" in2="effect1_dropShadow_2_234" result="shape"/>
</filter>
<linearGradient id="paint0_linear_2_234" x1="12" y1="15" x2="12" y2="33" gradientUnits="userSpaceOnUse">
<stop stop-color="#5CD331"/>
<stop offset="1" stop-color="#078C04"/>
</linearGradient>
</defs>
</svg>
