<svg width="16" height="15" viewBox="0 0 16 15" fill="none" xmlns="http://www.w3.org/2000/svg">
<g filter="url(#filter0_d_2_121)">
<path d="M4 1.15C4.48 0.969996 5.43 1.08 5.68 1.62C5.93 2.16 6.08 2.86 6.09 2.69C6.07087 2.17329 6.11452 1.65618 6.22 1.15C6.33115 0.825811 6.58582 0.571146 6.91 0.459996C7.20732 0.365968 7.52299 0.34538 7.83 0.399996C8.14042 0.463894 8.41535 0.642423 8.6 0.899996C8.83395 1.48313 8.96587 2.10215 8.99 2.73C9.01488 2.19425 9.10556 1.6636 9.26 1.15C9.42711 0.914545 9.67113 0.744787 9.95 0.669996C10.2806 0.609551 10.6194 0.609551 10.95 0.669996C11.2214 0.760055 11.4587 0.931053 11.63 1.16C11.8424 1.69015 11.9706 2.25024 12.01 2.82C12.01 2.96 12.08 2.43 12.3 2.08C12.4767 1.55533 13.0453 1.27327 13.57 1.45C14.0947 1.62673 14.3767 2.19533 14.2 2.72C14.2 3.37 14.2 3.34 14.2 3.78C14.2 4.22 14.2 4.61 14.2 4.98C14.164 5.56522 14.0837 6.14687 13.96 6.72C13.7864 7.22731 13.5442 7.70845 13.24 8.15C12.7546 8.69005 12.3534 9.30025 12.05 9.96C11.976 10.288 11.9424 10.6238 11.95 10.96C11.949 11.2706 11.9894 11.58 12.07 11.88C11.6612 11.9237 11.2488 11.9237 10.84 11.88C10.45 11.82 9.97 11.04 9.84 10.8C9.77568 10.6711 9.64403 10.5897 9.5 10.5897C9.35597 10.5897 9.22432 10.6711 9.16 10.8C8.94 11.18 8.45 11.87 8.16 11.91C7.49 11.99 6.1 11.91 5.02 11.91C5.02 11.91 5.21 10.91 4.79 10.55C4.37 10.19 3.96 9.77 3.65 9.49L2.82 8.57C2.23469 8.02667 1.80638 7.33585 1.58 6.57C1.37 5.63 1.39 5.18 1.58 4.8C1.77379 4.4862 2.07639 4.2548 2.43 4.15C2.72377 4.0967 3.02618 4.11732 3.31 4.21C3.50627 4.29216 3.67589 4.42717 3.8 4.6C4.03 4.91 4.11 5.06 4.01 4.72C3.91 4.38 3.69 4.13 3.58 3.72C3.36585 3.23579 3.23728 2.71813 3.2 2.19C3.24098 1.71616 3.57182 1.31756 4.03 1.19" fill="white"/>
<path fill-rule="evenodd" clip-rule="evenodd" d="M4 1.15C4.48 0.969996 5.43 1.08 5.68 1.62C5.93 2.16 6.08 2.86 6.09 2.69C6.07087 2.17329 6.11452 1.65618 6.22 1.15C6.33115 0.825811 6.58582 0.571146 6.91 0.459996C7.20732 0.365968 7.52299 0.34538 7.83 0.399996C8.14042 0.463894 8.41535 0.642423 8.6 0.899996C8.83395 1.48313 8.96587 2.10215 8.99 2.73C9.01488 2.19425 9.10556 1.6636 9.26 1.15C9.42711 0.914545 9.67113 0.744787 9.95 0.669996C10.2806 0.609551 10.6194 0.609551 10.95 0.669996C11.2214 0.760055 11.4587 0.931053 11.63 1.16C11.8424 1.69015 11.9706 2.25024 12.01 2.82C12.01 2.96 12.08 2.43 12.3 2.08C12.4767 1.55533 13.0453 1.27327 13.57 1.45C14.0947 1.62673 14.3767 2.19533 14.2 2.72C14.2 3.37 14.2 3.34 14.2 3.78C14.2 4.22 14.2 4.61 14.2 4.98C14.164 5.56522 14.0837 6.14688 13.96 6.72C13.7864 7.22731 13.5442 7.70845 13.24 8.15C12.7546 8.69005 12.3534 9.30025 12.05 9.96C11.976 10.288 11.9424 10.6238 11.95 10.96C11.949 11.2706 11.9894 11.58 12.07 11.88C11.6612 11.9237 11.2488 11.9237 10.84 11.88C10.45 11.82 9.97 11.04 9.84 10.8C9.77568 10.6711 9.64403 10.5897 9.5 10.5897C9.35597 10.5897 9.22432 10.6711 9.16 10.8C8.94 11.18 8.45 11.87 8.16 11.91C7.49 11.99 6.1 11.91 5.02 11.91C5.02 11.91 5.21 10.91 4.79 10.55C4.37 10.19 3.96 9.77 3.65 9.49L2.82 8.57C2.23469 8.02667 1.80638 7.33585 1.58 6.57C1.37 5.63 1.39 5.18 1.58 4.8C1.77379 4.4862 2.07639 4.2548 2.43 4.15C2.72377 4.0967 3.02618 4.11732 3.31 4.21C3.50627 4.29216 3.67589 4.42717 3.8 4.6C4.03 4.91 4.11 5.06 4.01 4.72C3.91 4.38 3.69 4.13 3.58 3.72C3.36585 3.23579 3.23728 2.71813 3.2 2.19C3.22045 1.70923 3.54057 1.29308 4 1.15Z" stroke="black" stroke-width="0.75" stroke-linejoin="round"/>
<path d="M11.75 8.82589V5.37411C11.75 5.16749 11.5821 5 11.375 5C11.1679 5 11 5.16749 11 5.37411V8.82589C11 9.03251 11.1679 9.2 11.375 9.2C11.5821 9.2 11.75 9.03251 11.75 8.82589Z" fill="black"/>
<path d="M9.76999 8.82463L9.74999 5.37107C9.7488 5.16495 9.57994 4.99882 9.37284 5.00001C9.16574 5.00119 8.99881 5.16925 9.00001 5.37537L9.02001 8.82893C9.0212 9.03505 9.19006 9.20118 9.39716 9.19999C9.60426 9.19881 9.77119 9.03075 9.76999 8.82463Z" fill="black"/>
<path d="M7.00001 5.37991L7.02001 8.82451C7.02122 9.0331 7.19009 9.20121 7.39719 9.19999C7.6043 9.19877 7.7712 9.02869 7.76999 8.82009L7.74999 5.37549C7.74878 5.1669 7.57991 4.99879 7.37281 5.00001C7.1657 5.00123 6.9988 5.17131 7.00001 5.37991Z" fill="black"/>
</g>
<defs>
<filter id="filter0_d_2_121" x="0.254901" y="-0.00483704" width="15.1729" height="14.1254" filterUnits="userSpaceOnUse" color-interpolation-filters="sRGB">
<feFlood flood-opacity="0" result="BackgroundImageFix"/>
<feColorMatrix in="SourceAlpha" type="matrix" values="0 0 0 0 0 0 0 0 0 0 0 0 0 0 0 0 0 0 127 0" result="hardAlpha"/>
<feOffset dy="1"/>
<feGaussianBlur stdDeviation="0.4"/>
<feColorMatrix type="matrix" values="0 0 0 0 0 0 0 0 0 0 0 0 0 0 0 0 0 0 0.5 0"/>
<feBlend mode="normal" in2="BackgroundImageFix" result="effect1_dropShadow_2_121"/>
<feBlend mode="normal" in="SourceGraphic" in2="effect1_dropShadow_2_121" result="shape"/>
</filter>
</defs>
</svg>
