<svg width="18" height="19" viewBox="0 0 18 19" fill="none" xmlns="http://www.w3.org/2000/svg">
<g filter="url(#filter0_d_2_129)">
<path d="M5.38 9.27C5.28 8.9 5.18 8.42 4.97 7.72C4.76 7.02 4.63 6.86 4.5 6.49C4.37 6.12 4.2 5.77 4 5.31C3.81681 4.84005 3.66317 4.35912 3.54 3.87C3.45676 3.4578 3.55918 3.02986 3.82 2.7C4.17886 2.34982 4.69668 2.21656 5.18 2.35C5.55865 2.51559 5.87907 2.79073 6.1 3.14C6.39504 3.61167 6.63653 4.11478 6.82 4.64C7.10174 5.35963 7.30622 6.10716 7.43 6.87L7.52 7.32C7.52 7.32 7.52 6.2 7.52 6.16C7.52 5.16 7.46 4.34 7.52 3.22C7.52 3.09 7.58 2.63 7.6 2.5C7.62586 2.06996 7.88212 1.68748 8.27 1.5C8.71529 1.30021 9.22472 1.30021 9.67 1.5C10.0686 1.67843 10.3347 2.06401 10.36 2.5C10.36 2.61 10.45 3.5 10.45 3.61C10.45 4.61 10.45 5.25 10.45 5.78C10.45 6.01 10.45 7.41 10.45 7.25C10.4736 5.93046 10.5871 4.61407 10.79 3.31C10.9085 2.90144 11.196 2.56301 11.58 2.38C12.0549 2.19294 12.5945 2.28543 12.98 2.62C13.2682 2.93629 13.4378 3.34269 13.46 3.77C13.46 4.18 13.46 4.67 13.46 5.02C13.46 5.89 13.46 6.34 13.46 7.14C13.46 7.14 13.46 7.44 13.46 7.32C13.55 7.04 13.65 6.78 13.73 6.58C13.81 6.38 13.97 5.97 14.09 5.72C14.2121 5.48166 14.3491 5.25121 14.5 5.03C14.6568 4.77573 14.8919 4.57922 15.17 4.47C15.4205 4.37318 15.6993 4.38115 15.9438 4.49213C16.1884 4.6031 16.378 4.80774 16.47 5.06C16.5295 5.42425 16.5295 5.79575 16.47 6.16C16.4033 6.71943 16.2862 7.27168 16.12 7.81C15.99 8.26 15.85 9.04 15.78 9.41C15.71 9.78 15.55 10.79 15.42 11.23C15.2275 11.7549 14.9615 12.2498 14.63 12.7C14.1448 13.2402 13.7437 13.8504 13.44 14.51C13.3653 14.8379 13.3317 15.1738 13.34 15.51C13.3384 15.8207 13.3788 16.1301 13.46 16.43C13.0512 16.4736 12.6388 16.4736 12.23 16.43C11.84 16.37 11.36 15.59 11.23 15.35C11.1657 15.2211 11.034 15.1397 10.89 15.1397C10.746 15.1397 10.6143 15.2211 10.55 15.35C10.32 15.73 9.84 16.42 9.5 16.46C8.83 16.54 7.45 16.46 6.36 16.46C6.36 16.46 6.55 15.46 6.13 15.1C5.71 14.74 5.3 14.32 4.99 14.04L4.16 13.12C3.88 12.76 3.53 12.03 2.92 11.12C2.57 10.62 1.92 10.03 1.64 9.54C1.40493 9.14232 1.33663 8.66783 1.45 8.22C1.61981 7.62536 2.21067 7.25446 2.82 7.36C3.2835 7.39054 3.72192 7.58146 4.06 7.9C4.32771 8.13164 4.57836 8.38229 4.81 8.65C4.97 8.84 5.01 8.93 5.19 9.16C5.37 9.39 5.49 9.62 5.4 9.28" fill="white"/>
<path d="M5.38 9.27C5.28 8.9 5.18 8.42 4.97 7.72C4.76 7.02 4.63 6.86 4.5 6.49C4.37 6.12 4.2 5.77 4 5.31C3.81681 4.84005 3.66317 4.35912 3.54 3.87C3.45676 3.4578 3.55918 3.02986 3.82 2.7C4.17886 2.34982 4.69668 2.21656 5.18 2.35C5.55865 2.51559 5.87907 2.79073 6.1 3.14C6.39504 3.61167 6.63653 4.11478 6.82 4.64C7.10174 5.35963 7.30622 6.10716 7.43 6.87L7.52 7.32C7.52 7.32 7.52 6.2 7.52 6.16C7.52 5.16 7.46 4.34 7.52 3.22C7.52 3.09 7.58 2.63 7.6 2.5C7.62586 2.06996 7.88212 1.68748 8.27 1.5C8.71529 1.30021 9.22472 1.30021 9.67 1.5C10.0686 1.67843 10.3347 2.06401 10.36 2.5C10.36 2.61 10.45 3.5 10.45 3.61C10.45 4.61 10.45 5.25 10.45 5.78C10.45 6.01 10.45 7.41 10.45 7.25C10.4736 5.93046 10.5871 4.61407 10.79 3.31C10.9085 2.90144 11.196 2.56301 11.58 2.38C12.0549 2.19294 12.5945 2.28543 12.98 2.62C13.2682 2.93629 13.4378 3.34269 13.46 3.77C13.46 4.18 13.46 4.67 13.46 5.02C13.46 5.89 13.46 6.34 13.46 7.14C13.46 7.14 13.46 7.44 13.46 7.32C13.55 7.04 13.65 6.78 13.73 6.58C13.81 6.38 13.97 5.97 14.09 5.72C14.2121 5.48166 14.3491 5.25121 14.5 5.03C14.6568 4.77573 14.8919 4.57922 15.17 4.47C15.4205 4.37318 15.6993 4.38115 15.9438 4.49213C16.1884 4.6031 16.378 4.80774 16.47 5.06C16.5295 5.42425 16.5295 5.79575 16.47 6.16C16.4033 6.71943 16.2862 7.27168 16.12 7.81C15.99 8.26 15.85 9.04 15.78 9.41C15.71 9.78 15.55 10.79 15.42 11.23C15.2275 11.7549 14.9615 12.2498 14.63 12.7C14.1448 13.2402 13.7437 13.8504 13.44 14.51C13.3653 14.8379 13.3317 15.1738 13.34 15.51C13.3384 15.8207 13.3788 16.1301 13.46 16.43C13.0512 16.4736 12.6388 16.4736 12.23 16.43C11.84 16.37 11.36 15.59 11.23 15.35C11.1657 15.2211 11.034 15.1397 10.89 15.1397C10.746 15.1397 10.6143 15.2211 10.55 15.35C10.32 15.73 9.84 16.42 9.5 16.46C8.83 16.54 7.45 16.46 6.36 16.46C6.36 16.46 6.55 15.46 6.13 15.1C5.71 14.74 5.3 14.32 4.99 14.04L4.16 13.12C3.88 12.76 3.53 12.03 2.92 11.12C2.57 10.62 1.92 10.03 1.64 9.54C1.40493 9.14232 1.33663 8.66783 1.45 8.22C1.61981 7.62536 2.21067 7.25446 2.82 7.36C3.2835 7.39054 3.72192 7.58146 4.06 7.9C4.32771 8.13164 4.57836 8.38229 4.81 8.65C4.97 8.84 5.01 8.93 5.19 9.16C5.37 9.39 5.49 9.62 5.4 9.28" stroke="black" stroke-width="0.75" stroke-linecap="round" stroke-linejoin="round"/>
<path d="M12.75 13.4309V9.9791C12.75 9.77249 12.5821 9.605 12.375 9.605C12.1679 9.605 12 9.77249 12 9.9791V13.4309C12 13.6375 12.1679 13.805 12.375 13.805C12.5821 13.805 12.75 13.6375 12.75 13.4309Z" fill="black"/>
<path d="M10.76 13.4307L10.75 9.97714C10.7494 9.77102 10.581 9.6044 10.3739 9.605C10.1668 9.60559 9.9994 9.77317 10 9.97929L10.01 13.4328C10.0106 13.639 10.179 13.8056 10.3861 13.805C10.5932 13.8044 10.7606 13.6368 10.76 13.4307Z" fill="black"/>
<path d="M8.00501 9.9799L8.02501 13.4245C8.02622 13.6331 8.19509 13.8012 8.4022 13.8C8.6093 13.7988 8.77621 13.6287 8.775 13.4201L8.755 9.97548C8.75379 9.76689 8.58492 9.59878 8.37781 9.6C8.17071 9.60122 8.0038 9.7713 8.00501 9.9799Z" fill="black"/>
</g>
<defs>
<filter id="filter0_d_2_129" x="0.221477" y="0.975159" width="17.4682" height="17.6954" filterUnits="userSpaceOnUse" color-interpolation-filters="sRGB">
<feFlood flood-opacity="0" result="BackgroundImageFix"/>
<feColorMatrix in="SourceAlpha" type="matrix" values="0 0 0 0 0 0 0 0 0 0 0 0 0 0 0 0 0 0 127 0" result="hardAlpha"/>
<feOffset dy="1"/>
<feGaussianBlur stdDeviation="0.4"/>
<feColorMatrix type="matrix" values="0 0 0 0 0 0 0 0 0 0 0 0 0 0 0 0 0 0 0.5 0"/>
<feBlend mode="normal" in2="BackgroundImageFix" result="effect1_dropShadow_2_129"/>
<feBlend mode="normal" in="SourceGraphic" in2="effect1_dropShadow_2_129" result="shape"/>
</filter>
</defs>
</svg>
