<svg width="14" height="18" viewBox="0 0 14 18" fill="none" xmlns="http://www.w3.org/2000/svg">
<g filter="url(#filter0_d_2_103)">
<path d="M3.67513 2.09927L3.72211 2.06389C4.67069 1.3922 5.79948 1.02155 6.91448 1.00215C8.32616 0.909469 9.70773 1.43907 10.6246 2.38552C11.5731 3.18527 12.0767 4.39399 11.98 5.54668C11.9829 6.41672 11.702 7.26398 11.1544 7.99266C10.7611 8.47409 10.304 8.89965 9.85004 9.21657L9.30624 9.65756C9.17977 9.75652 9.08315 9.88856 9.04384 9.9903C8.98411 10.1349 8.99113 10.3701 9 10.5644V11.61L5 11.61L4.98227 10.6774C4.93588 9.99057 4.974 9.30065 5.11119 8.55217C5.2091 8.16944 5.40866 7.84885 5.70134 7.54519C5.89994 7.33914 6.04769 7.2165 6.52035 6.84512L7.11744 6.37448C7.27661 6.25739 7.42039 6.12069 7.49735 6.03145C7.59957 5.88355 7.66002 5.71082 7.6703 5.57533C7.67341 5.44954 7.63166 5.32675 7.5103 5.1728C7.39008 5.00077 7.18505 4.90871 6.91526 4.93848C6.66056 4.95258 6.42088 5.06347 6.27303 5.21798C6.09106 5.42625 5.98731 5.69139 5.97961 5.96785L5.95253 6.94001H2.05819L1.9833 6.02124C1.86045 4.514 2.49448 3.04422 3.67513 2.09927Z" fill="white"/>
<path d="M4.29999 2.88001C5.08475 2.32432 6.01858 2.01769 6.97999 2.00001C8.10001 1.92647 9.19612 2.34665 9.97999 3.15001C10.6815 3.74149 11.0539 4.63544 10.98 5.55001C10.9822 6.20254 10.7715 6.83798 10.38 7.36001C10.0442 7.77105 9.65394 8.13439 9.22 8.44001L8.68999 8.87001C8.41815 9.08272 8.21048 9.36653 8.08999 9.69001C8.02638 9.87987 7.98579 10.2987 7.99999 10.61H5.99999C5.95913 10.0049 5.97271 9.39697 6.07999 8.80001C6.18999 8.37001 6.57999 8.07001 7.13999 7.63001L7.70999 7.18001C7.9369 7.01309 8.14186 6.81822 8.31999 6.60001C8.52444 6.3042 8.64534 5.95874 8.66999 5.60001C8.67896 5.23688 8.55844 4.88241 8.32999 4.60001C7.99887 4.12615 7.43413 3.8726 6.85999 3.94001C6.3506 3.9682 5.87124 4.18999 5.51999 4.56001C5.1851 4.94328 4.99416 5.43123 4.97999 5.94001H2.97999C2.88757 4.79679 3.35317 3.67936 4.22999 2.94001" fill="black"/>
<path d="M9 11V15H5V11H9Z" fill="white"/>
<path d="M8 12H6V14H8V12Z" fill="black"/>
</g>
<defs>
<filter id="filter0_d_2_103" x="0.168231" y="0.191715" width="13.6235" height="17.6083" filterUnits="userSpaceOnUse" color-interpolation-filters="sRGB">
<feFlood flood-opacity="0" result="BackgroundImageFix"/>
<feColorMatrix in="SourceAlpha" type="matrix" values="0 0 0 0 0 0 0 0 0 0 0 0 0 0 0 0 0 0 127 0" result="hardAlpha"/>
<feOffset dy="1"/>
<feGaussianBlur stdDeviation="0.9"/>
<feColorMatrix type="matrix" values="0 0 0 0 0 0 0 0 0 0 0 0 0 0 0 0 0 0 0.65 0"/>
<feBlend mode="normal" in2="BackgroundImageFix" result="effect1_dropShadow_2_103"/>
<feBlend mode="normal" in="SourceGraphic" in2="effect1_dropShadow_2_103" result="shape"/>
</filter>
</defs>
</svg>
