<svg width="24" height="37" viewBox="0 0 24 37" fill="none" xmlns="http://www.w3.org/2000/svg">
<g filter="url(#filter0_d_2_252)">
<path d="M12 14.5C6.75329 14.5 2.5 18.7533 2.5 24C2.5 29.2467 6.75329 33.5 12 33.5C17.2467 33.5 21.5 29.2467 21.5 24C21.4945 18.7556 17.2444 14.5055 12 14.5ZM8.61 18.5C9.62418 17.8561 10.7987 17.5096 12 17.5C15.5876 17.5055 18.4945 20.4124 18.5 24C18.4904 25.2013 18.1439 26.3758 17.5 27.39L8.61 18.5ZM12 30.5C8.41243 30.4945 5.50551 27.5876 5.5 24C5.50396 22.7885 5.85065 21.6028 6.5 20.58L15.44 29.52C14.4172 30.1694 13.2315 30.516 12.02 30.52L12 30.5Z" fill="white"/>
<path fill-rule="evenodd" clip-rule="evenodd" d="M3 24C3 28.97 7.03 33 12 33C16.97 33 21 28.97 21 24C21 19.029 16.97 15 12 15C7.03 15 3 19.029 3 24ZM7.826 18.39C8.993 17.521 10.434 17 12 17C15.866 17 19 20.134 19 24C19 25.567 18.48 27.008 17.61 28.174L7.826 18.39ZM5 24C5 22.422 5.529 20.971 6.409 19.801L16.199 29.591C15.028 30.472 13.577 31 12 31C8.134 31 5 27.866 5 24Z" fill="url(#paint0_linear_2_252)"/>
<path fill-rule="evenodd" clip-rule="evenodd" d="M2 17.5V1.5L13.6 13.1081H6.55353L6.40242 13.232L2 17.5Z" fill="white"/>
<path fill-rule="evenodd" clip-rule="evenodd" d="M3 3.79999V15L5.969 12.1309L6.129 11.9918L11.165 12L3 3.79999Z" fill="black"/>
</g>
<defs>
<filter id="filter0_d_2_252" x="0.2" y="0.7" width="23.1" height="35.6" filterUnits="userSpaceOnUse" color-interpolation-filters="sRGB">
<feFlood flood-opacity="0" result="BackgroundImageFix"/>
<feColorMatrix in="SourceAlpha" type="matrix" values="0 0 0 0 0 0 0 0 0 0 0 0 0 0 0 0 0 0 127 0" result="hardAlpha"/>
<feOffset dy="1"/>
<feGaussianBlur stdDeviation="0.9"/>
<feColorMatrix type="matrix" values="0 0 0 0 0 0 0 0 0 0 0 0 0 0 0 0 0 0 0.65 0"/>
<feBlend mode="normal" in2="BackgroundImageFix" result="effect1_dropShadow_2_252"/>
<feBlend mode="normal" in="SourceGraphic" in2="effect1_dropShadow_2_252" result="shape"/>
</filter>
<linearGradient id="paint0_linear_2_252" x1="12" y1="15" x2="12" y2="33" gradientUnits="userSpaceOnUse">
<stop stop-color="#F1F1F1"/>
<stop offset="1" stop-color="#D6D6D6"/>
</linearGradient>
</defs>
</svg>
