<svg width="17" height="18" viewBox="0 0 17 18" fill="none" xmlns="http://www.w3.org/2000/svg">
<g filter="url(#filter0_d_2_137)">
<path d="M4.27 12.28C3.99 11.92 3.64 11.19 3.03 10.28C2.68 9.78 1.82 8.83 1.56 8.34C1.37257 8.04223 1.31819 7.67966 1.41 7.34C1.56696 6.69421 2.17956 6.26582 2.84 6.34C3.3508 6.44261 3.82022 6.69297 4.19 7.06C4.44818 7.30318 4.68567 7.56742 4.9 7.85C5.06 8.05 5.1 8.13 5.28 8.36C5.46 8.59 5.58 8.82 5.49 8.48C5.42 7.98 5.3 7.14 5.13 6.39C5 5.82 4.97 5.73 4.85 5.3C4.73 4.87 4.66 4.51 4.53 4.02C4.41117 3.53858 4.31771 3.05124 4.25 2.56C4.12395 1.93171 4.21566 1.27922 4.51 0.710004C4.8594 0.381373 5.37193 0.294636 5.81 0.490004C6.2506 0.81534 6.5791 1.26966 6.75 1.79C7.01207 2.43039 7.18696 3.10307 7.27 3.79C7.43 4.79 7.74 6.25 7.75 6.55C7.75 6.18 7.68 5.4 7.75 5.05C7.81936 4.68513 8.07296 4.38232 8.42 4.25C8.71781 4.15863 9.03285 4.13808 9.34 4.19C9.65004 4.25482 9.92467 4.43315 10.11 4.69C10.3417 5.2734 10.4703 5.8926 10.49 6.52C10.5168 5.97059 10.6108 5.42653 10.77 4.9C10.9371 4.66455 11.1811 4.49479 11.46 4.42C11.7906 4.35956 12.1294 4.35956 12.46 4.42C12.7311 4.51063 12.9682 4.68152 13.14 4.91C13.3518 5.44035 13.48 6.00035 13.52 6.57C13.52 6.71 13.59 6.18 13.81 5.83C13.9243 5.4906 14.211 5.23797 14.5621 5.16728C14.9132 5.09659 15.2754 5.21857 15.5121 5.48728C15.7489 5.75599 15.8243 6.1306 15.71 6.47C15.71 7.12 15.71 7.09 15.71 7.53C15.71 7.97 15.71 8.36 15.71 8.73C15.6736 9.31518 15.5933 9.89681 15.47 10.47C15.296 10.9771 15.0538 11.4582 14.75 11.9C14.2645 12.44 13.8633 13.0502 13.56 13.71C13.4848 14.0378 13.4512 14.3738 13.46 14.71C13.459 15.0206 13.4994 15.33 13.58 15.63C13.1711 15.6732 12.7589 15.6732 12.35 15.63C11.96 15.57 11.48 14.79 11.35 14.55C11.2857 14.4211 11.154 14.3397 11.01 14.3397C10.866 14.3397 10.7343 14.4211 10.67 14.55C10.45 14.93 9.96 15.62 9.62 15.66C8.95 15.74 7.57 15.66 6.48 15.66C6.48 15.66 6.66 14.66 6.25 14.3C5.84 13.94 5.42 13.52 5.11 13.24L4.27 12.28Z" fill="white"/>
<path fill-rule="evenodd" clip-rule="evenodd" d="M4.27 12.28C3.99 11.92 3.64 11.19 3.03 10.28C2.68 9.78 1.82 8.83 1.56 8.34C1.37257 8.04223 1.31819 7.67966 1.41 7.34C1.56696 6.69421 2.17956 6.26582 2.84 6.34C3.3508 6.44261 3.82022 6.69297 4.19 7.06C4.44818 7.30318 4.68567 7.56742 4.9 7.85C5.06 8.05 5.1 8.13 5.28 8.36C5.46 8.59 5.58 8.82 5.49 8.48C5.42 7.98 5.3 7.14 5.13 6.39C5 5.82 4.97 5.73 4.85 5.3C4.73 4.87 4.66 4.51 4.53 4.02C4.41117 3.53858 4.31771 3.05124 4.25 2.56C4.12395 1.93171 4.21566 1.27922 4.51 0.710004C4.85939 0.381373 5.37193 0.294636 5.81 0.490004C6.2506 0.81534 6.5791 1.26966 6.75 1.79C7.01207 2.43039 7.18696 3.10307 7.27 3.79C7.43 4.79 7.74 6.25 7.75 6.55C7.75 6.18 7.68 5.4 7.75 5.05C7.81935 4.68513 8.07296 4.38232 8.42 4.25C8.71781 4.15863 9.03285 4.13808 9.34 4.19C9.65004 4.25482 9.92467 4.43315 10.11 4.69C10.3417 5.2734 10.4703 5.8926 10.49 6.52C10.5168 5.97059 10.6108 5.42653 10.77 4.9C10.9371 4.66455 11.1811 4.49479 11.46 4.42C11.7906 4.35956 12.1294 4.35956 12.46 4.42C12.7311 4.51063 12.9682 4.68152 13.14 4.91C13.3518 5.44035 13.48 6.00035 13.52 6.57C13.52 6.71 13.59 6.18 13.81 5.83C13.9243 5.4906 14.211 5.23797 14.5621 5.16728C14.9132 5.09659 15.2754 5.21857 15.5121 5.48728C15.7489 5.75599 15.8243 6.1306 15.71 6.47C15.71 7.12 15.71 7.09 15.71 7.53C15.71 7.97 15.71 8.36 15.71 8.73C15.6736 9.31518 15.5933 9.89681 15.47 10.47C15.296 10.9771 15.0538 11.4582 14.75 11.9C14.2644 12.44 13.8633 13.0502 13.56 13.71C13.4848 14.0378 13.4512 14.3738 13.46 14.71C13.459 15.0206 13.4994 15.33 13.58 15.63C13.1711 15.6732 12.7589 15.6732 12.35 15.63C11.96 15.57 11.48 14.79 11.35 14.55C11.2857 14.4211 11.154 14.3397 11.01 14.3397C10.866 14.3397 10.7343 14.4211 10.67 14.55C10.45 14.93 9.96 15.62 9.62 15.66C8.95 15.74 7.57 15.66 6.48 15.66C6.48 15.66 6.66 14.66 6.25 14.3C5.84 13.94 5.42 13.52 5.11 13.24L4.27 12.28Z" stroke="black" stroke-width="0.75" stroke-linecap="round" stroke-linejoin="round"/>
<path d="M12.75 12.8259V9.37411C12.75 9.16749 12.5821 9 12.375 9C12.1679 9 12 9.16749 12 9.37411V12.8259C12 13.0325 12.1679 13.2 12.375 13.2C12.5821 13.2 12.75 13.0325 12.75 12.8259Z" fill="black"/>
<path d="M10.77 12.8246L10.75 9.37107C10.7488 9.16495 10.5799 8.99882 10.3728 9.00001C10.1657 9.00119 9.99881 9.16925 10 9.37537L10.02 12.8289C10.0212 13.035 10.1901 13.2012 10.3972 13.2C10.6043 13.1988 10.7712 13.0307 10.77 12.8246Z" fill="black"/>
<path d="M8.00001 9.37899L8.02001 12.8254C8.02121 13.0335 8.19008 13.2012 8.39719 13.2C8.60429 13.1988 8.7712 13.0291 8.76999 12.821L8.74999 9.3746C8.74879 9.1665 8.57992 8.99879 8.37281 9.00001C8.16571 9.00122 7.9988 9.1709 8.00001 9.37899Z" fill="black"/>
</g>
<defs>
<filter id="filter0_d_2_137" x="0.191341" y="0.0117798" width="16.7461" height="17.8588" filterUnits="userSpaceOnUse" color-interpolation-filters="sRGB">
<feFlood flood-opacity="0" result="BackgroundImageFix"/>
<feColorMatrix in="SourceAlpha" type="matrix" values="0 0 0 0 0 0 0 0 0 0 0 0 0 0 0 0 0 0 127 0" result="hardAlpha"/>
<feOffset dy="1"/>
<feGaussianBlur stdDeviation="0.4"/>
<feColorMatrix type="matrix" values="0 0 0 0 0 0 0 0 0 0 0 0 0 0 0 0 0 0 0.5 0"/>
<feBlend mode="normal" in2="BackgroundImageFix" result="effect1_dropShadow_2_137"/>
<feBlend mode="normal" in="SourceGraphic" in2="effect1_dropShadow_2_137" result="shape"/>
</filter>
</defs>
</svg>
