<svg width="10" height="19" viewBox="0 0 10 19" fill="none" xmlns="http://www.w3.org/2000/svg">
<path d="M6.45126 9.02173H5.95126V4.50335C6.12608 4.12098 6.38244 3.7809 6.70287 3.50727C6.90669 3.36018 7.15496 3.22637 7.42051 3.12707C7.70048 3.07973 8.04974 3.05786 8.39862 3.07976L8.89763 3.11108L8.92896 2.61207L8.9916 1.61403L9.02292 1.11501L8.52391 1.08369C7.98878 1.0501 7.45155 1.08618 6.92572 1.19103L6.89198 1.19776L6.85948 1.20904C6.32205 1.39565 5.88022 1.63021 5.47789 1.92679L5.46499 1.93631L5.45272 1.94663C5.27775 2.09381 5.11473 2.25037 4.9641 2.4156C4.83103 2.26106 4.68877 2.11404 4.53788 1.97539L4.52152 1.96036L4.5039 1.94684C4.06075 1.60689 3.60025 1.36902 3.10675 1.21638L3.08341 1.20916L3.05948 1.20425C2.48069 1.08552 1.93841 1.04888 1.3969 1.0838L0.89794 1.11598L0.93012 1.61494L0.994479 2.61287L1.02666 3.11183L1.52562 3.07965C1.88074 3.05675 2.2373 3.07929 2.58663 3.1467C2.79094 3.21545 3.02448 3.33523 3.23668 3.49321C3.52692 3.76706 3.78319 4.12847 3.96126 4.53415L3.96126 9.02173H3.46126H2.96126V9.52173V10.5017V11.0017H3.46126H3.96126V14.5291C3.78365 14.9329 3.5258 15.2967 3.20309 15.5983C3.02623 15.7272 2.79356 15.8475 2.54223 15.9281C2.23911 15.9841 1.88262 16.007 1.52613 15.9838L1.02718 15.9514L0.99475 16.4503L0.929881 17.4482L0.897446 17.9472L1.39639 17.9796C1.93599 18.0147 2.47786 17.9786 3.00802 17.8722L3.03153 17.8675L3.05448 17.8605C3.59344 17.6974 4.05564 17.4608 4.46732 17.1471L4.48519 17.1335L4.50175 17.1184C4.669 16.9654 4.82449 16.8053 4.96817 16.6383C5.1149 16.7985 5.27257 16.9493 5.44034 17.0893L5.45125 17.0984L5.46267 17.1069C5.88442 17.4202 6.32544 17.6559 6.79506 17.8235L6.82559 17.8344L6.85727 17.8413C7.4453 17.9687 7.98062 18.0096 8.51604 17.9802L9.01529 17.9528L8.9879 17.4536L8.93312 16.4551L8.90573 15.9558L8.40648 15.9832C8.06048 16.0022 7.71351 15.9778 7.37368 15.9105C7.16601 15.8283 6.91723 15.6945 6.68831 15.5269C6.38653 15.271 6.12886 14.933 5.95126 14.5486L5.95126 11.0017H6.45126H6.95126L6.95126 10.5017V9.52173V9.02173H6.45126Z" fill="black" stroke="white"/>
</svg>
