<svg width="18" height="11" viewBox="0 0 18 11" fill="none" xmlns="http://www.w3.org/2000/svg">
<path d="M16.5467 5.9595C16.3937 5.79226 16.2336 5.63677 16.0666 5.49309C16.2268 5.34636 16.3775 5.18868 16.5176 5.02092L16.5267 5.01L16.5352 4.99859C16.8485 4.57684 17.0842 4.13581 17.2518 3.66619L17.2627 3.63567L17.2696 3.60399C17.397 3.01595 17.4379 2.48064 17.4085 1.94521L17.3811 1.44597L16.8819 1.47336L15.8834 1.52814L15.3841 1.55553L15.4115 2.05478C15.4305 2.40078 15.4061 2.74775 15.3388 3.08758C15.2566 3.29524 15.1228 3.54403 14.9552 3.77295C14.6993 4.07473 14.3613 4.3324 13.9769 4.51H10.43V4.01V3.51H9.93001H8.95001H8.45001V4.01V4.51H3.93164C3.54927 4.33518 3.20919 4.07882 2.93556 3.75839C2.78846 3.55457 2.65465 3.3063 2.55536 3.04075C2.50801 2.76078 2.48615 2.41152 2.50805 2.06264L2.53937 1.56362L2.04035 1.5323L1.04231 1.46966L0.543296 1.43833L0.511974 1.93735C0.478385 2.47248 0.514467 3.00971 0.619314 3.53554L0.626041 3.56928L0.637326 3.60178C0.823938 4.13921 1.0585 4.58104 1.35508 4.98336L1.36459 4.99627L1.37491 5.00854C1.52209 5.18351 1.67865 5.34653 1.84388 5.49716C1.68935 5.63022 1.54232 5.77249 1.40367 5.92338L1.38864 5.93974L1.37513 5.95736C1.03517 6.40051 0.797305 6.86101 0.644664 7.3545L0.637445 7.37784L0.632536 7.40178C0.513809 7.98056 0.477159 8.52285 0.512083 9.06435L0.544262 9.56332L1.04322 9.53114L2.04115 9.46678L2.54012 9.4346L2.50794 8.93564C2.48503 8.58052 2.50757 8.22396 2.57498 7.87463C2.64373 7.67031 2.76351 7.43678 2.9215 7.22458C3.19534 6.93434 3.55675 6.67807 3.96244 6.5H8.45001V7V7.5H8.95001H9.93001H10.43V7V6.5H13.9574C14.3612 6.67761 14.725 6.93546 15.0266 7.25817C15.1555 7.43503 15.2758 7.66769 15.3564 7.91903C15.4124 8.22215 15.4353 8.57863 15.4121 8.93513L15.3797 9.43407L15.8786 9.46651L16.8765 9.53138L17.3755 9.56381L17.4079 9.06486C17.443 8.52527 17.4069 7.9834 17.3005 7.45324L17.2957 7.42973L17.2888 7.40677C17.1257 6.86782 16.8891 6.40562 16.5754 5.99393L16.5618 5.97607L16.5467 5.9595Z" fill="black" stroke="white"/>
</svg>
