<svg width="20" height="20" viewBox="0 0 20 20" fill="none" xmlns="http://www.w3.org/2000/svg">
<g filter="url(#filter0_d_2_151)">
<path d="M12.8887 10.4794L18.0045 15.5952L16.5903 17.0094L11.4737 11.8928C10.4934 12.59 9.29457 13 8 13C4.68629 13 2 10.3137 2 7C2 3.68629 4.68629 1 8 1C11.3137 1 14 3.68629 14 7C14 8.29709 13.5884 9.49805 12.8887 10.4794Z" fill="black"/>
<path fill-rule="evenodd" clip-rule="evenodd" d="M8 12C10.7614 12 13 9.76142 13 7C13 4.23858 10.7614 2 8 2C5.23858 2 3 4.23858 3 7C3 9.76142 5.23858 12 8 12Z" fill="white"/>
<path d="M11 6H9V4H7V6H5V7.98H7V10H9V7.98H11V6Z" fill="black"/>
</g>
<defs>
<filter id="filter0_d_2_151" x="0.2" y="0.2" width="19.6045" height="19.6094" filterUnits="userSpaceOnUse" color-interpolation-filters="sRGB">
<feFlood flood-opacity="0" result="BackgroundImageFix"/>
<feColorMatrix in="SourceAlpha" type="matrix" values="0 0 0 0 0 0 0 0 0 0 0 0 0 0 0 0 0 0 127 0" result="hardAlpha"/>
<feOffset dy="1"/>
<feGaussianBlur stdDeviation="0.9"/>
<feColorMatrix type="matrix" values="0 0 0 0 0 0 0 0 0 0 0 0 0 0 0 0 0 0 0.65 0"/>
<feBlend mode="normal" in2="BackgroundImageFix" result="effect1_dropShadow_2_151"/>
<feBlend mode="normal" in="SourceGraphic" in2="effect1_dropShadow_2_151" result="shape"/>
</filter>
</defs>
</svg>
